<svg width="50" height="51" viewBox="0 0 50 51" fill="none" xmlns="http://www.w3.org/2000/svg">
<path id="Vector" d="M25 4.97879C13.6406 4.97879 4.40625 14.2132 4.39062 25.5725C4.39062 29.4632 5.48438 33.26 7.54688 36.5257L8.03125 37.3069L5.95312 44.9007L13.75 42.8538L14.5 43.3069C17.6562 45.1819 21.2812 46.1819 24.9844 46.1819H25C36.3438 46.1819 45.8281 36.9475 45.8281 25.5882C45.8281 20.0882 43.4531 14.9163 39.5625 11.0257C35.6562 7.11942 30.5 4.97879 25 4.97879ZM37.1094 34.4163C36.5938 35.8694 34.125 37.1819 32.9375 37.3538C30.9687 37.6507 29.4375 37.4944 25.5156 35.8069C19.3125 33.1194 15.25 26.8694 14.9375 26.4632C14.625 26.0569 12.4062 23.1038 12.4062 20.0569C12.4062 17.01 14 15.51 14.5781 14.885C15.1406 14.26 15.8125 14.1038 16.2344 14.1038C16.6406 14.1038 17.0625 14.1038 17.4219 14.1194C17.7969 14.135 18.3125 13.9788 18.8125 15.1819C19.3281 16.4163 20.5625 19.4632 20.7188 19.7757C20.875 20.0882 20.9844 20.4475 20.7656 20.8538C19.5781 23.2288 18.3125 23.135 18.9531 24.2288C21.3438 28.3382 23.7344 29.76 27.375 31.5882C28 31.9007 28.3594 31.8538 28.7188 31.4319C29.0781 31.0257 30.2656 29.6194 30.6719 29.01C31.0781 28.385 31.5 28.4944 32.0625 28.6975C32.625 28.9007 35.6719 30.4007 36.2969 30.7132C36.9219 31.0257 37.3281 31.1819 37.4844 31.4319C37.625 31.7288 37.625 32.9788 37.1094 34.4163ZM24.9844 50.3538C20.8281 50.3538 16.75 49.3069 13.1406 47.3382L0 50.7913L3.51562 37.9475C1.34375 34.1975 0.203125 29.9319 0.203125 25.5569C0.21875 11.9007 11.3281 0.79129 24.9844 0.79129C31.6094 0.79129 37.8281 3.36942 42.5156 8.05692C47.1875 12.7444 50 18.9632 50 25.5882C50 39.2444 38.6406 50.3538 24.9844 50.3538Z" fill="white"/>
</svg>
